<svg width="44" height="44" viewBox="0 0 44 44" fill="none" xmlns="http://www.w3.org/2000/svg">
<g filter="url(#filter0_d_1_670)">
<rect x="2" y="1" width="40" height="40" rx="20" fill="white"/>
<rect x="2.5" y="1.5" width="39" height="39" rx="19.5" stroke="#EEEFF2"/>
<path d="M31 30L25 24M13 19C13 19.9193 13.1811 20.8295 13.5328 21.6788C13.8846 22.5281 14.4002 23.2997 15.0503 23.9497C15.7003 24.5998 16.4719 25.1154 17.3212 25.4672C18.1705 25.8189 19.0807 26 20 26C20.9193 26 21.8295 25.8189 22.6788 25.4672C23.5281 25.1154 24.2997 24.5998 24.9497 23.9497C25.5998 23.2997 26.1154 22.5281 26.4672 21.6788C26.8189 20.8295 27 19.9193 27 19C27 18.0807 26.8189 17.1705 26.4672 16.3212C26.1154 15.4719 25.5998 14.7003 24.9497 14.0503C24.2997 13.4002 23.5281 12.8846 22.6788 12.5328C21.8295 12.1811 20.9193 12 20 12C19.0807 12 18.1705 12.1811 17.3212 12.5328C16.4719 12.8846 15.7003 13.4002 15.0503 14.0503C14.4002 14.7003 13.8846 15.4719 13.5328 16.3212C13.1811 17.1705 13 18.0807 13 19Z" stroke="#808897" stroke-width="2" stroke-linecap="round" stroke-linejoin="round"/>
</g>
<defs>
<filter id="filter0_d_1_670" x="0" y="0" width="44" height="44" filterUnits="userSpaceOnUse" color-interpolation-filters="sRGB">
<feFlood flood-opacity="0" result="BackgroundImageFix"/>
<feColorMatrix in="SourceAlpha" type="matrix" values="0 0 0 0 0 0 0 0 0 0 0 0 0 0 0 0 0 0 127 0" result="hardAlpha"/>
<feOffset dy="1"/>
<feGaussianBlur stdDeviation="1"/>
<feColorMatrix type="matrix" values="0 0 0 0 0 0 0 0 0 0 0 0 0 0 0 0 0 0 0.05 0"/>
<feBlend mode="normal" in2="BackgroundImageFix" result="effect1_dropShadow_1_670"/>
<feBlend mode="normal" in="SourceGraphic" in2="effect1_dropShadow_1_670" result="shape"/>
</filter>
</defs>
</svg>
